<svg xmlns="http://www.w3.org/2000/svg" viewBox="0 0 128 128">
  <rect width="128" height="128" rx="8" fill="#3178c6"/>
  <path d="M82.4 97.9V110c2.1 1.1 4.6 1.9 7.3 2.4 2.8.6 5.7.8 8.8.8 3 0 5.9-.3 8.5-.9 2.7-.6 5-1.5 7-2.8s3.6-2.9 4.8-4.9c1.2-2 1.8-4.4 1.8-7.2 0-2-.3-3.8-.9-5.4-.6-1.6-1.5-3-2.6-4.3s-2.5-2.4-4.1-3.4c-1.6-1-3.4-2-5.4-2.9-1.5-.7-2.8-1.3-4-2-1.2-.6-2.2-1.3-3-2-.8-.7-1.5-1.4-1.9-2.2-.4-.8-.7-1.7-.7-2.7 0-.9.2-1.8.6-2.5s1-1.4 1.8-2c.8-.5 1.7-1 2.8-1.3 1.1-.3 2.3-.5 3.7-.5 1 0 2 .1 3.1.2 1.1.2 2.1.4 3.2.8 1.1.3 2.1.8 3.1 1.3 1 .5 1.9 1.2 2.7 1.9V62c-1.8-.8-3.8-1.3-6-1.7-2.2-.4-4.6-.6-7.4-.6-3 0-5.8.3-8.4 1-2.6.7-4.9 1.7-6.9 3s-3.5 2.9-4.7 4.9c-1.1 2-1.7 4.3-1.7 6.9 0 3.3.9 6.1 2.8 8.4 1.9 2.4 4.7 4.4 8.5 6.2 1.5.7 2.9 1.4 4.2 2 1.3.7 2.5 1.4 3.4 2.1 1 .7 1.7 1.5 2.3 2.4.5.8.8 1.8.8 2.8 0 .9-.2 1.7-.5 2.4-.4.7-.9 1.3-1.6 1.8s-1.6.9-2.6 1.2c-1.1.3-2.3.4-3.7.4-2.5 0-4.9-.5-7.2-1.4-2.3-.9-4.4-2.3-6.2-4.1zM49.9 67.7h14.6V57H33.7v10.7h14.6v42.6h1.6z" fill="#fff"/>
</svg>