<svg xmlns="http://www.w3.org/2000/svg" viewBox="0 0 410 404" fill="none">
  <path d="M399.641 59.5246L215.643 388.545C211.844 395.338 202.084 395.378 198.228 388.618L10.5817 59.5563C6.38087 52.1896 12.6802 43.2665 21.0281 44.7586L205.223 77.6824C206.398 77.8924 207.601 77.8904 208.776 77.6763L389.119 44.8058C397.439 43.2894 403.768 52.1434 399.641 59.5246Z" fill="url(#paint0_linear)"/>
  <path d="M292.965 1.5744L156.801 28.2552C154.563 28.6937 152.906 30.5903 152.771 32.8664L144.395 167.601C144.198 170.947 147.258 173.549 150.51 172.808L188.42 164.408C191.967 163.599 195.146 166.602 194.494 170.199L183.003 231.775C182.27 235.784 186.067 239.052 189.89 237.661L212.296 229.547C216.125 228.153 219.926 231.432 219.177 235.447L201.398 326.458C200.258 332.395 208.183 335.724 211.447 330.624L213.693 327.129L298.945 109.232C300.625 104.993 296.726 100.601 292.359 101.871L253.299 113.004C249.402 114.131 245.928 110.517 246.947 106.57L271.158 9.14377C272.18 5.18815 268.664 1.58466 264.739 2.7299L292.965 1.5744Z" fill="url(#paint1_linear)"/>
  <defs>
    <linearGradient id="paint0_linear" x1="6.00017" y1="32.9999" x2="235" y2="344" gradientUnits="userSpaceOnUse">
      <stop stop-color="#41D1FF"/>
      <stop offset="1" stop-color="#BD34FE"/>
    </linearGradient>
    <linearGradient id="paint1_linear" x1="194.651" y1="8.81818" x2="236.076" y2="292.989" gradientUnits="userSpaceOnUse">
      <stop stop-color="#FFBD4F"/>
      <stop offset="1" stop-color="#FF980E"/>
    </linearGradient>
  </defs>
</svg>